<svg width="900" height="520" viewBox="0 0 900 520" xmlns="http://www.w3.org/2000/svg">
  <defs>
    <marker id="a" markerWidth="10" markerHeight="10" refX="8" refY="3" orient="auto">
      <path d="M0,0 L0,6 L9,3 z" fill="#667085"/>
    </marker>
  </defs>
  <rect width="900" height="520" fill="#fff"/>
  <g font-family="Microsoft YaHei UI, Segoe UI, sans-serif" font-size="16" fill="#1f2a5a" text-anchor="middle">
    <g fill="#eef2ff" stroke="#c7d2fe">
      <rect x="40" y="40" width="120" height="44" rx="12"/><rect x="200" y="40" width="120" height="44" rx="12"/><rect x="360" y="40" width="120" height="44" rx="12"/><rect x="520" y="40" width="120" height="44" rx="12"/><rect x="680" y="40" width="180" height="44" rx="12"/>
      <rect x="680" y="140" width="180" height="44" rx="12"/><rect x="680" y="240" width="180" height="44" rx="12"/><rect x="680" y="340" width="180" height="44" rx="12"/>
      <rect x="360" y="440" width="180" height="44" rx="12" fill="#fee2e2" stroke="#fecaca"/>
    </g>
    <text x="100" y="68">欢迎页</text>
    <text x="260" y="68">创建 DID</text>
    <text x="420" y="68">开始创建</text>
    <text x="580" y="68">生成助记词</text>
    <text x="770" y="68">展示并确认助记词</text>
    <text x="770" y="168">进入绑定 SN</text>
    <text x="770" y="268">输入名字 + 密码</text>
    <text x="770" y="368">绑定 owner / DID 文档</text>
    <text x="450" y="468">退出 App = 放弃本次创建流程</text>
  </g>
  <g stroke="#667085" stroke-width="2.5" fill="none" marker-end="url(#a)">
    <path d="M160 62 H200"/><path d="M320 62 H360"/><path d="M480 62 H520"/><path d="M640 62 H680"/>
    <path d="M770 84 V140"/><path d="M770 184 V240"/><path d="M770 284 V340"/>
    <path d="M260 84 V462 H360"/><path d="M580 84 V462 H540"/><path d="M770 184 V462 H540"/>
  </g>
</svg>
