<svg width="900" height="320" viewBox="0 0 900 320" xmlns="http://www.w3.org/2000/svg">
  <defs><marker id="a" markerWidth="10" markerHeight="10" refX="8" refY="3" orient="auto"><path d="M0,0 L0,6 L9,3 z" fill="#667085"/></marker></defs>
  <rect width="900" height="320" fill="#fff"/>
  <g font-family="Microsoft YaHei UI, Segoe UI, sans-serif" font-size="15" fill="#1f2a5a" text-anchor="middle">
    <g fill="#eef2ff" stroke="#c7d2fe">
      <rect x="30" y="40" width="120" height="44" rx="12"/><rect x="180" y="40" width="170" height="44" rx="12"/><rect x="380" y="40" width="160" height="44" rx="12"/><rect x="570" y="40" width="150" height="44" rx="12"/>
      <rect x="570" y="140" width="150" height="44" rx="12"/><rect x="750" y="40" width="120" height="44" rx="12" fill="#dcfce7" stroke="#86efac"/><rect x="750" y="140" width="120" height="44" rx="12" fill="#fee2e2" stroke="#fecaca"/>
    </g>
    <text x="90" y="68">欢迎页</text>
    <text x="265" y="68">输入助记词 + 密码</text>
    <text x="460" y="68">派生 public key</text>
    <text x="645" y="68">查询 SN</text>
    <text x="810" y="68">导入成功</text>
    <text x="645" y="168">有无 SN 记录？</text>
    <text x="810" y="168">导入失败</text>
  </g>
  <g stroke="#667085" stroke-width="2.5" fill="none" marker-end="url(#a)">
    <path d="M150 62 H180"/><path d="M350 62 H380"/><path d="M540 62 H570"/><path d="M720 62 H750"/>
    <path d="M645 84 V140"/><path d="M720 162 H750"/>
  </g>
  <g font-family="Microsoft YaHei UI, Segoe UI, sans-serif" font-size="13" fill="#667085">
    <text x="744" y="122">有记录，读取 SN 名字作为昵称</text>
    <text x="728" y="222">无记录，提示“当前 DID 在 SN 上无记录，导入失败”</text>
  </g>
</svg>
